<svg xmlns="http://www.w3.org/2000/svg" xmlns:xlink="http://www.w3.org/1999/xlink" width="102" height="102" viewBox="0 0 102 102">
    <defs>
        <path id="a" d="M99.545 8.388C99.438 8.388 94.53 7 87.485 7c-8.54 0-19.747 2.241-29.886 11.314C47.459 9.24 36.252 7 27.713 7 20.67 7 15.76 8.388 15.653 8.388c-1.388.426-2.456 1.814-2.456 3.308v18.892c5.977-5.123 13.662-8.218 22.2-8.218 18.893 0 34.156 15.263 34.156 34.155 0 15.05-9.82 27.857-23.375 32.34 3.202 1.601 6.297 3.522 9.072 6.084a3.73 3.73 0 0 0 2.349.854 3.73 3.73 0 0 0 2.348-.854c10.033-9.393 24.549-9.5 32.233-9.5 3.63 0 5.978.107 5.978.107.96.107 1.92-.213 2.668-.854A3.41 3.41 0 0 0 102 82.141V11.696c0-1.494-.96-2.882-2.455-3.308zM23.444 79.152c3.522 1.921 7.578 2.989 11.954 2.989 14.089 0 25.616-11.42 25.616-25.616S49.487 30.908 35.398 30.908A25.555 25.555 0 0 0 9.782 56.525c0 4.269 1.067 8.432 2.988 11.954a167.034 167.034 0 0 0-5.87 6.83C4.445 78.406 2.204 81.5.603 83.956c-1.174 1.708-.534 4.803 1.067 6.298 1.494 1.6 4.483 2.134 6.084 1.174 2.455-1.601 5.443-3.843 8.752-6.511 2.241-1.708 4.483-3.63 6.938-5.764zm11.954-38.53c8.752 0 15.903 7.15 15.903 15.903 0 8.752-7.15 15.796-15.903 15.796-8.752 0-15.903-7.044-15.903-15.796 0-8.753 7.15-15.904 15.903-15.904z"/>
    </defs>
    <g fill="none" fill-rule="evenodd">
        <mask id="b" fill="#fff">
            <use xlink:href="#a"/>
        </mask>
        <use fill="#fff" fill-rule="nonzero" xlink:href="#a"/>
        <g fill="#fff" mask="url(#b)">
            <path d="M-2-6.544h112v112H-2z"/>
        </g>
    </g>
</svg>
