<svg xmlns="http://www.w3.org/2000/svg" xmlns:xlink="http://www.w3.org/1999/xlink" width="219" height="82.33" viewBox="0 0 219 82.33">
  <defs>
    <style>
      .cls-1 {
        fill: none;
      }

      .cls-2 {
        clip-path: url(#clip-path);
      }

      .cls-3 {
        fill: #fff;
      }
    </style>
    <clipPath id="clip-path" transform="translate(0 0)">
      <rect class="cls-1" width="219" height="82.33"/>
    </clipPath>
  </defs>
  <title>logo</title>
  <g id="Layer_2" data-name="Layer 2">
    <g id="background">
      <g class="cls-2">
        <path class="cls-3" d="M61.42,12.79c-.07,0-.09.1,0,.14,3.33,2.15,3,4.08,9.13,8.59,0,0,.06,0,0,0-1.4-4.79-4.68-8.55-9.15-8.69M70,15s-.12,0-.08.07a17.44,17.44,0,0,1,1.93,5.72l1,4.72s0,.05,0,0c-.87-1.44-4.92-3.45-7.58-5.52,0,0-.1,0-.08.06,1.5,4.39,6.35,6.26,9.32,9.49,0,0,.1,0,.09,0C74.29,24.82,75,19,70,15M78.63,30.3a13.46,13.46,0,0,0-2.77-8.39c0-.05-.12,0-.11.07,1.32,4.81-.08,9,.45,12.64,0,.05,0,.06-.07,0-1.33-3.24-5-4.82-6.57-7.06a.06.06,0,0,0-.11.05c1.49,6.39,6.26,8.42,7.21,11.8a.06.06,0,0,0,.11,0c.66-2.57,2-5.34,1.86-9.13m1.7,3.5a.07.07,0,0,0-.13,0c-.12,4.72-2.89,8.36-3.44,11.61,0,0-.05,0-.05,0-.1-4.22-3.15-6.76-4.85-10a.07.07,0,0,0-.13,0c-.25,6.1,4.15,9.9,4,15a.07.07,0,0,0,.12,0c3.47-4.8,6.74-10.61,4.47-16.74m1.08,12.6c0-.07-.1-.08-.13,0-2.13,4.31-4.68,5.28-7.89,10a0,0,0,0,1,0,0c1.26-3.79-.82-8.81-.9-12.17,0-.07-.1-.08-.13,0-2.54,6.16.14,12.49-2.1,16.64,0,.05,0,.11.07.08a25.09,25.09,0,0,0,8.52-6.94c1.45-2.22,2.75-4.6,2.61-7.53M78.24,57.84C76,60.94,71,62.1,66.16,65.92c0,0-.07,0,0,0,2.46-3.28,2.19-7.76,3.09-11.69a.05.05,0,0,0-.09,0C64.41,59.49,65,65.33,62.91,68.07a.05.05,0,0,0,0,.08c7.14,0,14.84-6.26,15.39-10.28,0,0-.06-.07-.1,0m-6.79,10.7c-6.26,2.83-8.78,1.23-14.77,2.38,0,0,0,0,0-.06,4.17-2.25,5-5.9,6.4-8.28a.05.05,0,0,0-.07-.07c-4.59,2.23-6.09,7.38-11.59,8.72-.06,0-.06.08,0,.1,2.31.54,4.06,1.56,6.47,1.76,6.71.57,11.6-1.48,13.66-4.47a.06.06,0,0,0-.08-.08M20,12.79c-4.46.14-7.74,3.9-9.15,8.69,0,0,0,.05.05,0C17.05,17,16.71,15.08,20,12.93a.07.07,0,0,0,0-.14m-3.76,7.26c-2.65,2.07-6.71,4.08-7.58,5.52,0,0-.06,0-.05,0l1-4.72a17.91,17.91,0,0,1,1.93-5.72s0-.11-.07-.07c-5.06,4-4.32,9.78-4.54,14.52a.06.06,0,0,0,.09,0c3-3.23,7.82-5.1,9.32-9.49,0-.06,0-.1-.08-.06m-4.38,7.53c-1.61,2.24-5.24,3.82-6.57,7.06,0,0-.07,0-.06,0C5.75,31,4.36,26.79,5.67,22c0-.07-.07-.12-.11-.07A13.45,13.45,0,0,0,2.8,30.3C2.66,34.09,4,36.86,4.65,39.43a.06.06,0,0,0,.11,0c1-3.38,5.72-5.41,7.21-11.8,0-.07-.06-.11-.11-.05M9.69,35.51a.07.07,0,0,0-.13,0c-1.7,3.2-4.74,5.74-4.84,10,0,0,0,0-.06,0-.55-3.25-3.32-6.89-3.44-11.61a.07.07,0,0,0-.13,0c-2.27,6.13,1,11.94,4.48,16.74,0,.05.11,0,.11,0-.14-5.08,4.27-8.88,4-15m1.52,25.28c-2.24-4.15.44-10.48-2.1-16.64a.06.06,0,0,0-.12,0c-.08,3.36-2.17,8.38-.91,12.17,0,0,0,0-.05,0-3.21-4.7-5.76-5.67-7.89-10,0-.06-.13-.05-.13,0-.14,2.93,1.16,5.31,2.62,7.53a25,25,0,0,0,8.51,6.94s.09,0,.07-.08m7.3,7.28c-2.09-2.74-1.49-8.58-6.2-13.93a.06.06,0,0,0-.1,0c.9,3.93.63,8.41,3.1,11.69,0,0,0,.06-.05,0-4.86-3.82-9.86-5-12.08-8.08a.06.06,0,0,0-.1,0c.56,4,8.26,10.27,15.39,10.28,0,0,.07-.05,0-.08M30,71.23c-5.49-1.34-7-6.49-11.59-8.72a.05.05,0,0,0-.07.07c1.45,2.38,2.23,6,6.4,8.28a0,0,0,1,1,0,.06c-6-1.15-8.5.45-14.77-2.38a.06.06,0,0,0-.08.08c2.06,3,7,5,13.66,4.47,2.41-.2,4.16-1.22,6.47-1.76.06,0,.06-.09,0-.1m34.66,3.62a12.32,12.32,0,0,1-7.27.31c-5.25-1.63-11.09-4.74-16.7-2.16-5.6-2.58-11.44.53-16.7,2.16a12.29,12.29,0,0,1-7.26-.31.06.06,0,0,0-.05.1A12.15,12.15,0,0,0,28.06,77c3.75-1.17,6.93-5.15,11.38-3.46a30.76,30.76,0,0,0-9.36,6.32l1.85,1.52a30.83,30.83,0,0,1,7.86-7,1.43,1.43,0,0,1,1.85,0,31.17,31.17,0,0,1,7.86,7l1.85-1.52A30.81,30.81,0,0,0,42,73.58c4.45-1.69,7.63,2.29,11.39,3.46A12.15,12.15,0,0,0,64.73,75s0-.12,0-.1M43.2,60.24H34.66a8.56,8.56,0,0,1-1.58-.13h0a14.51,14.51,0,0,0,5.83,4.72,19.74,19.74,0,0,0,.92,3.8,6.08,6.08,0,0,0,2.42-.7c.06-.2-.9-3.45-.9-3.45a17.43,17.43,0,0,0,1.85-4.25M58.08,16c-.22-.16-.9,1.54-1.71,2a1,1,0,0,0-.4.42,1.07,1.07,0,0,0-.11.59.52.52,0,0,0,.23.41.47.47,0,0,0,.46,0,1.05,1.05,0,0,0,.4-.43,1,1,0,0,0,.11-.59c-.06-1,1.17-2.3,1-2.39m.62,2.43c-.13-.14-1.17,1.61-2.12,1.4a.9.9,0,0,0-.81.22s0-.08,0-.13a1,1,0,0,0-.24-.56c-.64-.78.25-2.62.08-2.68s-.48,1.89-1,2.73a.89.89,0,0,0-.13.59.93.93,0,0,0,.24.57.62.62,0,0,0,.48.21.58.58,0,0,0,.35-.17.57.57,0,0,0,.06.24.63.63,0,0,0,.41.34.77.77,0,0,0,.57,0,.86.86,0,0,0,.41-.41c.41-.92,1.83-2.17,1.7-2.3m-.35,2.12c-.12-.17-1.58,1.53-2.57,1.1a1,1,0,0,0-.65-.05,1,1,0,0,0-.34.18,1,1,0,0,0,0-.18,1,1,0,0,0-.37-.58c-.83-.73-.17-2.93-.37-2.95s-.2,2.17-.62,3.2a1,1,0,0,0-.06.67,1,1,0,0,0,.37.58.68.68,0,0,0,.56.13.51.51,0,0,0,.23-.12v0a.8.8,0,0,0,.39.47.88.88,0,0,0,.64.05.94.94,0,0,0,.53-.37c.61-.92,2.38-2,2.27-2.17m-3.52,3.11a1.08,1.08,0,0,0-.7-.06,1.36,1.36,0,0,0-.46.25,1.23,1.23,0,0,0,0-.5,1.21,1.21,0,0,0-.36-.64c-.82-.82-.26-3.29-.45-3.32s-.12,2.43-.51,3.59a1.34,1.34,0,0,0,0,.75,1.27,1.27,0,0,0,.38.65.57.57,0,0,0,.54.16.37.37,0,0,0,.14-.07v.09a.66.66,0,0,0,.38.45,1.18,1.18,0,0,0,1.32-.32c.77-.9,2.59-2.17,2.48-2.34s-1.64,1.71-2.7,1.31m-9.57,5a37.52,37.52,0,0,1,3.5-4.13.14.14,0,0,0,0-.18.12.12,0,0,0-.17,0c-.27.29-.55.56-.83.83-.13-.06-.45.05-.76.31a1.55,1.55,0,0,0-.5.58c-.16,0-.47.15-.75.5a1.6,1.6,0,0,0-.35.8c-.17,0-.43.23-.64.58a1.88,1.88,0,0,0-.26.65,1.59,1.59,0,0,0-.44.5,1.37,1.37,0,0,0-.26.84,1.12,1.12,0,0,0-.13.24,1.36,1.36,0,0,1,0-.2A40.17,40.17,0,0,1,45,23.56a18.24,18.24,0,0,1,2.6-5.84h0a.23.23,0,0,0,0-.29.19.19,0,0,0-.29,0,9.14,9.14,0,0,0-1.13,1.51c-.14-.08-.44.2-.67.65a1.25,1.25,0,0,0-.21.91h0c-.15-.07-.43.26-.6.72s-.2.81-.08.94,0,0,0,0c-.16-.06-.44.32-.61.87a1.51,1.51,0,0,0-.05,1s0,0,0,0c-.17-.06-.44.34-.59.88s-.15,1,0,1.08c-.17,0-.41.38-.53.91a1.55,1.55,0,0,0,0,1c-.17.05-.35.44-.45.94a1.45,1.45,0,0,0,.08,1,1.49,1.49,0,0,0-.37,1,1.48,1.48,0,0,0,.14,1,1.83,1.83,0,0,0-.3.9,2,2,0,0,0,0,.92,1.6,1.6,0,0,0-.25,1,2,2,0,0,0,.15.9,2.11,2.11,0,0,0-.13.78,2,2,0,0,0,.16.92c0,1.41,0,2.91.06,4.32h3c0-1.1.1-2.3.21-3.39a13.9,13.9,0,0,1,1.5-5.56h0a.19.19,0,0,0,0-.19.12.12,0,0,0-.19,0,11.4,11.4,0,0,0-2.23,5.58c-.06.4-.11.79-.15,1.18a25.93,25.93,0,0,1,.59-4.7,7,7,0,0,1,2.85-4.57.14.14,0,0,0,.06-.16.13.13,0,0,0-.16-.09,1.48,1.48,0,0,0-.29.12c-.11-.13-.5,0-.9.22s-.63.56-.6.72,0,0,0,0,0,0,0-.05-.53.14-.85.6-.46.93-.32,1,0,0,0,0c-.17-.07-.46.31-.63.85a2,2,0,0,0-.12.92,0,0,0,0,1,0,0c-.13.43-.24.87-.34,1.32,0-.63.1-1.27.19-1.89a12.85,12.85,0,0,1,1.77-5.07M53,37.32a.24.24,0,0,0-.33,0,19,19,0,0,0-3.08,4.41h1a17.78,17.78,0,0,1,2.37-4h0a.26.26,0,0,0,0-.32m-1.4,30h0c-.31-.88-.74-1.66-1.08-2.5s-.72-1.66-1-2.53c-.24-.64-.5-1.38-.7-2.06H47.8c.27.79.61,1.63.93,2.39a26.27,26.27,0,0,0,2.56,4.87.13.13,0,0,0,.17,0,.17.17,0,0,0,.09-.21m-.32-3.68c-.26-1-.53-2.33-.77-3.42h-1c.37,1.17.88,2.46,1.33,3.57a.22.22,0,0,0,.25.13.23.23,0,0,0,.15-.28M48.65,66.5l-1.49-6.26H44.61a20.64,20.64,0,0,0,1.73,4.62.21.21,0,0,0,.23.12.23.23,0,0,0,.19-.27c-.18-1.32-.38-2.6-.58-3.88a26.39,26.39,0,0,0,2.25,5.77.1.1,0,0,0,.13.06.12.12,0,0,0,.09-.16M62,26c-.94-.24-6.91-1.3-13.6,11,1-4.58,3.94-10.13,4.76-11.74h0a.22.22,0,0,0-.06-.27.18.18,0,0,0-.27,0c-4.43,7.38-6,11.63-6.9,16.71h2.78c.47-4.9,6.66-16.45,13.25-15.59h0a.05.05,0,0,0,.07-.05.08.08,0,0,0,0-.1M37.78,19.7a.2.2,0,0,0-.2-.08.17.17,0,0,0-.11.22c1.73,4.65-.48,6.93-1.4,10.2-1.11-2.65,2.56-5.14.67-10a.2.2,0,0,0-.15-.12.17.17,0,0,0-.2.16A6.61,6.61,0,0,1,34,24.69a4.32,4.32,0,0,0-1-1.47,3.22,3.22,0,0,0-2-2.5,2.81,2.81,0,0,0-1.27-1.5,2.65,2.65,0,0,0-2.32.09,2.65,2.65,0,0,0-2.15,1.22A2.48,2.48,0,0,0,25,22.35a4.15,4.15,0,0,0-.9,2.89A5.47,5.47,0,0,0,24,28.57a5.37,5.37,0,0,0,.23,3.92c0,.15,0,.3,0,.44-2.05-2.25-6.71-5-8.5-6.09a.23.23,0,0,0-.26,0,.23.23,0,0,0,0,.32c4,3.88,7.53,8.66,10.93,18.59a12.68,12.68,0,0,1,9.15-4.09H40.7c-3.25-12.11,1.48-16.44-2.92-22m-2.93,9.57c.43.53.27,1.47-.49,1.51a1.44,1.44,0,0,1-1.18-.35c-.43-.51-.27-1.49.49-1.51a1.43,1.43,0,0,1,1.18.35m-1.09-2.9a1,1,0,0,1,.44,1.55,1.34,1.34,0,0,1-1.06.13c-.64-.13-1.06-1.1-.49-1.55a1.22,1.22,0,0,1,1.11-.13m-2.83,2.68c.56-.06,1.14-.19,1.48.4a1.08,1.08,0,0,1-.63,1.62,1.36,1.36,0,0,1-1.39-.28c-.45-.55-.27-1.67.54-1.74m-1.25-1.54c-.35-1.2,1.69-1.74,2-.55s-1.74,1.75-2,.55m2.73-3.45c.57,0,.85.84.52,1.26a1,1,0,0,1-.92.22.81.81,0,0,1-.52-1.26c.22-.29.6-.22.92-.22M30.9,21.87a.85.85,0,0,1,.88.2.68.68,0,0,1-.3,1.16,1.13,1.13,0,0,1-.83-.15.71.71,0,0,1,.25-1.21m-.09,2.8c.35,1-1.42,1.6-1.74.57s1.45-1.6,1.74-.57M28.31,23c-.27-.91,1.22-1.38,1.51-.49s-1.25,1.39-1.51.49m0,4.72c-.42.1-.86.27-1.21-.1a.91.91,0,0,1,.28-1.49,1.1,1.1,0,0,1,1.21.1c.41.42.37,1.33-.28,1.49M28.58,20a.94.94,0,0,1,1,0,.73.73,0,0,1-.15,1.22.91.91,0,0,1-1,0,.72.72,0,0,1,.13-1.2m-.2,4.49c.34.92-1.23,1.45-1.53.54s1.26-1.46,1.53-.54M26.06,23c-.23-.86,1.21-1.26,1.44-.39s-1.21,1.26-1.44.39m.23-2.59a.76.76,0,0,1,.95.07.67.67,0,0,1-.19,1.05.81.81,0,0,1-1-.07.68.68,0,0,1,.2-1.05M25,23.81a.89.89,0,0,1,.8-.19.7.7,0,0,1,.07,1.18,1,1,0,0,1-.71.22A.71.71,0,0,1,25,23.81m-.07,2.4a.78.78,0,1,1,1,1.15,1.2,1.2,0,0,1-.83.25.81.81,0,0,1-.19-1.4m1.59,2.6c.63,1.12-1.27,2.37-1.81,1.16-.48-1,1.2-2.24,1.81-1.16m-1.67,3.82c-.55-1.2,1.44-2.51,2-1.21s-1.43,2.53-2,1.21M27,35.34c-.12.07-.16.11-.2.11l-1.11-1.21a5.21,5.21,0,0,1,.47-.35c.92-.5,1.68,1,.84,1.45m.23-5.55c-.4-1.36,1.92-2,2.28-.62s-2,2-2.28.62m.35,2.88c-.42-1.46,2.05-2.1,2.44-.66s-2.1,2.11-2.44.66m.36,2.94c-.41-1.47,2.05-2.11,2.43-.67s-2.09,2.11-2.43.67m2.88,2.73c-.15.52-.59.61-1.05.72a16,16,0,0,1-1.12-1.42.31.31,0,0,1,0-.13.62.62,0,0,1,.26-.27A2,2,0,0,1,30.07,37a1.11,1.11,0,0,1,.71,1.36M31.32,32c.58-.14,1.18-.35,1.63.21A1.17,1.17,0,0,1,32.5,34a1.46,1.46,0,0,1-1.52-.1c-.55-.53-.51-1.73.34-1.93m.54,2.95c.55-.13,1.12-.33,1.54.21A1.09,1.09,0,0,1,33,36.83a1.36,1.36,0,0,1-1.44-.09c-.53-.5-.49-1.64.32-1.84m2.24,4.49c0,.26-.41.31-.65.37-.71.22-1.39.13-1.61-.72s.46-1.3,1.2-1.48a1,1,0,0,1,1.05.33.71.71,0,0,1,.17.24s-.11,1-.16,1.26m.54-3.88c0,.13,0,.24,0,.36a1,1,0,0,1-.42-1.2.8.8,0,0,1,.74-.43l-.27,1.27m.7-3.13c0,.14-.3,1.18-.3,1.18a1.59,1.59,0,0,1-.48,0,1,1,0,0,1-.91-1.21c.19-.52.58-.57,1.07-.59a1.43,1.43,0,0,1,.76.16s-.07.24-.14.5m25.41-1.82c-.14-.22-1.37,1.13-2.28,1.26a.93.93,0,0,0-.52.25,1,1,0,0,0-.31.53.52.52,0,0,0,.07.46.47.47,0,0,0,.44.15.86.86,0,0,0,.52-.26,1,1,0,0,0,.31-.5c.27-.93,1.88-1.75,1.77-1.89M58,33.63a.77.77,0,0,0-.56-.15.68.68,0,0,0-.28.07l.06-.12a1,1,0,0,0,0-.62c-.33-1,1.14-2.36,1-2.48s-1.1,1.6-1.88,2.2A.93.93,0,0,0,56,33a.87.87,0,0,0,0,.62.59.59,0,0,0,.38.36.53.53,0,0,0,.39,0,.47.47,0,0,0,0,.24.64.64,0,0,0,.27.47.76.76,0,0,0,.55.16.81.81,0,0,0,.53-.25c.71-.72,2.46-1.38,2.39-1.55s-1.65,1.1-2.47.57m-1.38,1.42a.92.92,0,0,0-.59-.28.82.82,0,0,0-.38.06.77.77,0,0,0,0-.19,1,1,0,0,0-.14-.66c-.53-1,.84-2.81.66-2.91s-.92,2-1.69,2.78a1,1,0,0,0-.28.61,1.19,1.19,0,0,0,.14.67.62.62,0,0,0,.75.3s0,0,0,0a.74.74,0,0,0,.2.57.91.91,0,0,0,.58.28.89.89,0,0,0,.62-.17c.89-.64,2.92-1,2.87-1.23s-2,.88-2.78.13m-1.58,1.54a1.09,1.09,0,0,0-.64-.29,1.12,1.12,0,0,0-.52.06,1.37,1.37,0,0,0,.15-.47,1.27,1.27,0,0,0-.12-.74c-.48-1.06.9-3.17.72-3.27s-.95,2.24-1.71,3.19a1.41,1.41,0,0,0-.16,1.44.63.63,0,0,0,.46.34.39.39,0,0,0,.15,0l0,.08a.66.66,0,0,0,.21.57,1,1,0,0,0,.63.29,1.1,1.1,0,0,0,.71-.13c1-.57,3.17-1.12,3.13-1.32s-2.13,1-3,.27M33.61,46.11a17,17,0,0,0-7.89,2.13,0,0,0,0,1-.06-.07c.64-.93,4.05-5.51,9.93-5.51h15a1.75,1.75,0,0,1,0,3.45Zm1,13.19c-4.84,0-5.23-3.58-12.41-4.38a.05.05,0,0,1,0-.1c5.9-1.47,8.1,1,11.54,1H50.55a1.75,1.75,0,0,1,0,3.45Zm-.33-4.36c-4.72,0-6.1-2.69-13.25-.92,0,0-.08-.05,0-.08,4-2.73,8.32-2.48,10.07-2.48H50.55a1.74,1.74,0,0,1,0,3.44l-16.22,0m-3.61-4.43a21,21,0,0,0-8,1.36c-.05,0-.09,0-.05-.09a15.36,15.36,0,0,1,11.81-4.72h16a1.75,1.75,0,0,1,0,3.45Zm5.85-39.23H33.84L32.32,5.36c-.06-.22-.16-.65-.29-1.32s-.22-1.1-.24-1.32c0,.27-.11.72-.23,1.34s-.22,1.05-.29,1.31l-1.52,5.91H27L24.16,0h2.36L28,6.16c.25,1.13.43,2.12.54,2.95,0-.29.11-.75.22-1.36A14.13,14.13,0,0,1,29,6.32L30.67,0h2.26l1.65,6.32q.11.42.27,1.29c.1.59.19,1.08.24,1.5,0-.4.14-.9.25-1.5s.22-1.08.31-1.45L37.08,0h2.35Zm6.5,0H40.71V0h6.47V2H43.07V4.87h3.82v2H43.07ZM56.76,3.52A3.43,3.43,0,0,1,55.62,6.3a4.81,4.81,0,0,1-3.23,1h-1v4H49V0h3.6a4.78,4.78,0,0,1,3.12.89,3.22,3.22,0,0,1,1.07,2.63m-5.4,1.79h.79a2.64,2.64,0,0,0,1.65-.44,1.54,1.54,0,0,0,.55-1.27,1.58,1.58,0,0,0-.46-1.24A2.15,2.15,0,0,0,52.45,2H51.36Z" transform="translate(0 0)"/>
        <path class="cls-3" d="M109.92,12.47v14.6a8.49,8.49,0,0,1-1.12,4.38,7.2,7.2,0,0,1-3.23,2.88,11.41,11.41,0,0,1-5,1,9.56,9.56,0,0,1-6.76-2.24A7.89,7.89,0,0,1,91.4,27V12.47h4.77V26.28a5.75,5.75,0,0,0,1,3.82,4.34,4.34,0,0,0,3.47,1.23,4.27,4.27,0,0,0,3.4-1.23,5.79,5.79,0,0,0,1.06-3.85V12.47Z" transform="translate(0 0)"/>
        <path class="cls-3" d="M135.27,35h-6.08L119.38,18h-.14q.29,4.52.29,6.44V35h-4.27V12.47h6l9.8,16.9h.1Q131,25,131,23.15V12.47h4.31Z" transform="translate(0 0)"/>
        <polygon class="cls-3" points="159.25 35.03 154.48 35.03 154.48 25.29 145.54 25.29 145.54 35.03 140.76 35.03 140.76 12.47 145.54 12.47 145.54 21.32 154.48 21.32 154.48 12.47 159.25 12.47 159.25 35.03"/>
        <path class="cls-3" d="M169.51,26.38V35h-4.78V12.47h6.57c3.07,0,5.33.56,6.8,1.68a5.94,5.94,0,0,1,2.21,5.08,6,6,0,0,1-1.09,3.54,7.3,7.3,0,0,1-3.11,2.43q5.1,7.61,6.64,9.83h-5.31l-5.38-8.65Zm0-3.9h1.54a5.85,5.85,0,0,0,3.35-.75,2.7,2.7,0,0,0,1.08-2.38,2.48,2.48,0,0,0-1.1-2.28,6.72,6.72,0,0,0-3.42-.68h-1.45Z" transform="translate(0 0)"/>
        <path class="cls-3" d="M204.63,23.53c0,3.72-1.06,6.56-3.18,8.54s-5.16,3-9.15,3h-6.39V12.47H193c3.69,0,6.54,1,8.58,2.92s3.06,4.66,3.06,8.14m-5,.13q0-7.26-6.42-7.27H190.7V31.08h2.05q6.9,0,6.91-7.42" transform="translate(0 0)"/>
        <polygon class="cls-3" points="102.82 58.79 101.39 58.79 101.39 53.01 94.91 53.01 94.91 58.79 93.48 58.79 93.48 46.5 94.91 46.5 94.91 51.73 101.39 51.73 101.39 46.5 102.82 46.5 102.82 58.79"/>
        <path class="cls-3" d="M107,49.57v6a2.37,2.37,0,0,0,.52,1.68,2.1,2.1,0,0,0,1.61.56,2.6,2.6,0,0,0,2.11-.8,3.93,3.93,0,0,0,.67-2.58V49.57h1.4V58.8H112.1l-.2-1.24h-.07a2.8,2.8,0,0,1-1.19,1,4,4,0,0,1-1.74.37,3.5,3.5,0,0,1-2.52-.81,3.38,3.38,0,0,1-.84-2.55v-6Z" transform="translate(0 0)"/>
        <path class="cls-3" d="M127.57,58.79v-6a2.44,2.44,0,0,0-.47-1.65,1.81,1.81,0,0,0-1.46-.56,2.35,2.35,0,0,0-1.93.76,3.55,3.55,0,0,0-.62,2.3v5.14h-1.4v-6a2.5,2.5,0,0,0-.47-1.65,1.81,1.81,0,0,0-1.47-.56,2.27,2.27,0,0,0-1.92.79,4.23,4.23,0,0,0-.62,2.58v4.83h-1.39V49.57H117l.23,1.27h.07a2.62,2.62,0,0,1,1.11-1.05,3.33,3.33,0,0,1,1.61-.38A2.74,2.74,0,0,1,122.8,51h.07a2.91,2.91,0,0,1,1.19-1.14,3.75,3.75,0,0,1,1.79-.42,3.14,3.14,0,0,1,2.34.8,3.59,3.59,0,0,1,.78,2.57v6Z" transform="translate(0 0)"/>
        <path class="cls-3" d="M137.13,58.8l-.28-1.32h-.06a3.92,3.92,0,0,1-1.38,1.18,4.28,4.28,0,0,1-1.71.31,3.08,3.08,0,0,1-2.15-.71,2.57,2.57,0,0,1-.78-2q0-2.79,4.47-2.93l1.56,0V52.7a2.36,2.36,0,0,0-.46-1.61,1.94,1.94,0,0,0-1.5-.51,6.08,6.08,0,0,0-2.61.7l-.43-1.07a6.56,6.56,0,0,1,1.5-.57,6,6,0,0,1,1.63-.22,3.49,3.49,0,0,1,2.44.74,3.06,3.06,0,0,1,.8,2.35V58.8Zm-3.15-1A2.89,2.89,0,0,0,136,57.1a2.69,2.69,0,0,0,.74-2v-.83l-1.4.06a5,5,0,0,0-2.4.52,1.56,1.56,0,0,0-.74,1.43,1.47,1.47,0,0,0,.46,1.15,2,2,0,0,0,1.29.39" transform="translate(0 0)"/>
        <path class="cls-3" d="M147,58.79V52.84a2.42,2.42,0,0,0-.51-1.69,2.1,2.1,0,0,0-1.61-.56,2.66,2.66,0,0,0-2.12.78,4,4,0,0,0-.67,2.59v4.83h-1.4V49.57h1.14l.23,1.27h.06a2.88,2.88,0,0,1,1.2-1.06,4,4,0,0,1,1.73-.37,3.53,3.53,0,0,1,2.51.8,3.43,3.43,0,0,1,.84,2.57v6Z" transform="translate(0 0)"/>
        <path class="cls-3" d="M150.76,47.08a.92.92,0,0,1,.23-.7.8.8,0,0,1,.59-.23.78.78,0,0,1,.58.23.88.88,0,0,1,.25.7.91.91,0,0,1-.25.7.82.82,0,0,1-.58.23.84.84,0,0,1-.59-.23,1,1,0,0,1-.23-.7m1.51,11.71h-1.39V49.57h1.39Z" transform="translate(0 0)"/>
        <path class="cls-3" d="M158,57.81a5.55,5.55,0,0,0,.72-.05l.55-.11v1.06a2.49,2.49,0,0,1-.67.19,4.81,4.81,0,0,1-.8.07c-1.78,0-2.68-.94-2.68-2.83V50.66h-1.32V50l1.32-.59.59-2h.81v2.13h2.68v1.09h-2.68v5.43a1.84,1.84,0,0,0,.4,1.28,1.38,1.38,0,0,0,1.08.44" transform="translate(0 0)"/>
        <path class="cls-3" d="M166.84,58.8l-.28-1.32h-.07a3.92,3.92,0,0,1-1.38,1.18,4.25,4.25,0,0,1-1.71.31,3.1,3.1,0,0,1-2.15-.71,2.57,2.57,0,0,1-.78-2q0-2.79,4.47-2.93l1.57,0V52.7a2.36,2.36,0,0,0-.47-1.61,1.93,1.93,0,0,0-1.49-.51,6.08,6.08,0,0,0-2.61.7l-.43-1.07a6.31,6.31,0,0,1,1.49-.57,6,6,0,0,1,1.63-.22,3.49,3.49,0,0,1,2.44.74,3.06,3.06,0,0,1,.8,2.35V58.8Zm-3.16-1a2.87,2.87,0,0,0,2-.71,2.69,2.69,0,0,0,.74-2v-.83l-1.39.06a5,5,0,0,0-2.41.52,1.55,1.55,0,0,0-.73,1.43,1.46,1.46,0,0,0,.45,1.15,2,2,0,0,0,1.29.39" transform="translate(0 0)"/>
        <path class="cls-3" d="M174.59,49.41a5.39,5.39,0,0,1,1.11.1l-.2,1.29a5,5,0,0,0-1-.12,2.45,2.45,0,0,0-1.91.91,3.3,3.3,0,0,0-.8,2.26v4.94h-1.39V49.57h1.15l.16,1.71h.06A4.09,4.09,0,0,1,173,49.9a2.79,2.79,0,0,1,1.59-.49" transform="translate(0 0)"/>
        <path class="cls-3" d="M177.14,47.08a.88.88,0,0,1,.24-.7.78.78,0,0,1,.59-.23.79.79,0,0,1,.58.23.91.91,0,0,1,.24.7.94.94,0,0,1-.24.7A.83.83,0,0,1,178,48a.82.82,0,0,1-.59-.23.94.94,0,0,1-.24-.7m1.52,11.71h-1.4V49.57h1.4Z" transform="translate(0 0)"/>
        <path class="cls-3" d="M186.85,58.8l-.27-1.32h-.07a3.92,3.92,0,0,1-1.38,1.18,4.25,4.25,0,0,1-1.71.31,3.1,3.1,0,0,1-2.15-.71,2.57,2.57,0,0,1-.78-2q0-2.79,4.47-2.93l1.57,0V52.7a2.36,2.36,0,0,0-.47-1.61,1.94,1.94,0,0,0-1.5-.51,6.12,6.12,0,0,0-2.61.7l-.42-1.07a6.31,6.31,0,0,1,1.49-.57,6,6,0,0,1,1.63-.22,3.49,3.49,0,0,1,2.44.74,3.06,3.06,0,0,1,.8,2.35V58.8Zm-3.15-1a2.87,2.87,0,0,0,2.05-.71,2.69,2.69,0,0,0,.74-2v-.83l-1.39.06a5,5,0,0,0-2.41.52,1.56,1.56,0,0,0-.74,1.43,1.47,1.47,0,0,0,.46,1.15,2,2,0,0,0,1.29.39" transform="translate(0 0)"/>
        <path class="cls-3" d="M196.72,58.79V52.84a2.38,2.38,0,0,0-.52-1.69,2.09,2.09,0,0,0-1.6-.56,2.64,2.64,0,0,0-2.12.78A4,4,0,0,0,191.8,54v4.83h-1.4V49.57h1.14l.23,1.27h.07a2.76,2.76,0,0,1,1.2-1.06,3.87,3.87,0,0,1,1.72-.37,3.53,3.53,0,0,1,2.51.8,3.43,3.43,0,0,1,.84,2.57v6Z" transform="translate(0 0)"/>
        <path class="cls-3" d="M94.91,73.07v5.12H93.48V65.88h3.38a5.29,5.29,0,0,1,3.34.87,3.15,3.15,0,0,1,1.08,2.61,3.26,3.26,0,0,1-2.47,3.3l3.34,5.53h-1.69l-3-5.12Zm0-1.23h2a3.39,3.39,0,0,0,2.22-.6,2.24,2.24,0,0,0,.71-1.81,2,2,0,0,0-.72-1.75,3.89,3.89,0,0,0-2.31-.54H94.91Z" transform="translate(0 0)"/>
        <path class="cls-3" d="M107.39,78.36a4.22,4.22,0,0,1-3.22-1.25A4.81,4.81,0,0,1,103,73.65a5.34,5.34,0,0,1,1.1-3.54,3.64,3.64,0,0,1,3-1.31,3.49,3.49,0,0,1,2.75,1.13,4.42,4.42,0,0,1,1,3v.89h-6.36a3.65,3.65,0,0,0,.82,2.46,2.84,2.84,0,0,0,2.19.84,7.34,7.34,0,0,0,3-.62v1.25a8.15,8.15,0,0,1-1.4.46,8.06,8.06,0,0,1-1.6.14M107,70a2.3,2.3,0,0,0-1.78.73,3.27,3.27,0,0,0-.77,2h4.82a3.08,3.08,0,0,0-.59-2A2.08,2.08,0,0,0,107,70" transform="translate(0 0)"/>
        <path class="cls-3" d="M118.86,75.67a2.34,2.34,0,0,1-1,2,4.57,4.57,0,0,1-2.7.69,5.84,5.84,0,0,1-2.86-.58V76.48a7.15,7.15,0,0,0,1.43.53,5.88,5.88,0,0,0,1.47.19,3.34,3.34,0,0,0,1.68-.35,1.19,1.19,0,0,0,.12-2,7.23,7.23,0,0,0-1.82-.91,9.65,9.65,0,0,1-1.83-.84,2.41,2.41,0,0,1-.81-.81,2.16,2.16,0,0,1-.26-1.08,2.06,2.06,0,0,1,.91-1.78,4.26,4.26,0,0,1,2.52-.66,7.45,7.45,0,0,1,2.91.61l-.49,1.14a6.78,6.78,0,0,0-2.52-.58,2.88,2.88,0,0,0-1.5.32.94.94,0,0,0-.5.85,1.05,1.05,0,0,0,.19.64,1.67,1.67,0,0,0,.61.49,11.71,11.71,0,0,0,1.61.68,6.06,6.06,0,0,1,2.22,1.21,2.12,2.12,0,0,1,.57,1.52" transform="translate(0 0)"/>
        <path class="cls-3" d="M125,78.35a4,4,0,0,1-1.64-.33,3,3,0,0,1-1.25-1H122a14,14,0,0,1,.1,1.53v3.8h-1.4V69h1.13l.2,1.27h.07a3.24,3.24,0,0,1,1.25-1.1A3.87,3.87,0,0,1,125,68.8a3.39,3.39,0,0,1,2.83,1.25,6.68,6.68,0,0,1,0,7A3.42,3.42,0,0,1,125,78.35m-.2-8.37a2.47,2.47,0,0,0-2,.78,4,4,0,0,0-.65,2.5v.31a4.57,4.57,0,0,0,.65,2.78,2.45,2.45,0,0,0,2.07.84,2.19,2.19,0,0,0,1.88-1,4.63,4.63,0,0,0,.67-2.67,4.45,4.45,0,0,0-.67-2.65,2.25,2.25,0,0,0-1.91-.92" transform="translate(0 0)"/>
        <path class="cls-3" d="M139,73.57a5.09,5.09,0,0,1-1.14,3.52,4,4,0,0,1-3.14,1.26,4.1,4.1,0,0,1-2.19-.58A3.77,3.77,0,0,1,131,76.11a5.94,5.94,0,0,1-.52-2.54,5.1,5.1,0,0,1,1.13-3.52,4,4,0,0,1,3.13-1.25,3.9,3.9,0,0,1,3.08,1.28A5.08,5.08,0,0,1,139,73.57m-7,0a4.33,4.33,0,0,0,.71,2.69,2.44,2.44,0,0,0,2.07.93,2.48,2.48,0,0,0,2.09-.93,5.43,5.43,0,0,0,0-5.37,2.54,2.54,0,0,0-2.1-.91,2.44,2.44,0,0,0-2.07.9,4.32,4.32,0,0,0-.7,2.69" transform="translate(0 0)"/>
        <path class="cls-3" d="M147.42,78.19v-6a2.41,2.41,0,0,0-.52-1.68,2.1,2.1,0,0,0-1.61-.56,2.66,2.66,0,0,0-2.12.78,4,4,0,0,0-.67,2.59v4.84h-1.4V69h1.14l.23,1.27h.07a2.76,2.76,0,0,1,1.2-1.06,3.88,3.88,0,0,1,1.72-.38,3.49,3.49,0,0,1,2.51.81,3.41,3.41,0,0,1,.84,2.57v6Z" transform="translate(0 0)"/>
        <path class="cls-3" d="M157.23,75.67a2.32,2.32,0,0,1-1,2,4.55,4.55,0,0,1-2.69.69,5.79,5.79,0,0,1-2.86-.58V76.48a7.06,7.06,0,0,0,1.42.53,5.93,5.93,0,0,0,1.47.19,3.34,3.34,0,0,0,1.68-.35,1.2,1.2,0,0,0,.13-2,7.17,7.17,0,0,0-1.83-.91,10.3,10.3,0,0,1-1.83-.84,2.29,2.29,0,0,1-.8-.81,2.22,2.22,0,0,1,.65-2.86,4.24,4.24,0,0,1,2.52-.66,7.45,7.45,0,0,1,2.91.61l-.5,1.14A6.74,6.74,0,0,0,154,70a2.82,2.82,0,0,0-1.49.32,1,1,0,0,0-.51.85,1.05,1.05,0,0,0,.19.64,1.87,1.87,0,0,0,.61.49,12,12,0,0,0,1.62.68,5.92,5.92,0,0,1,2.21,1.21,2.09,2.09,0,0,1,.58,1.52" transform="translate(0 0)"/>
        <path class="cls-3" d="M163.15,78.36a4.24,4.24,0,0,1-3.23-1.25,4.81,4.81,0,0,1-1.18-3.46,5.28,5.28,0,0,1,1.1-3.54,3.62,3.62,0,0,1,2.95-1.31,3.47,3.47,0,0,1,2.74,1.13,4.42,4.42,0,0,1,1,3v.89h-6.36a3.65,3.65,0,0,0,.83,2.46,2.83,2.83,0,0,0,2.19.84,7.33,7.33,0,0,0,2.94-.62v1.25a8.15,8.15,0,0,1-1.4.46,8,8,0,0,1-1.59.14m-.38-8.4a2.29,2.29,0,0,0-1.77.73,3.34,3.34,0,0,0-.78,2H165a3.08,3.08,0,0,0-.59-2,2.06,2.06,0,0,0-1.68-.71" transform="translate(0 0)"/>
        <path class="cls-3" d="M182.88,71.92a6.16,6.16,0,0,1-1.66,4.65,6.52,6.52,0,0,1-4.76,1.62h-3.41V65.88h3.78a5.53,5.53,0,0,1,6,6m-1.52,0a4.93,4.93,0,0,0-1.21-3.63,4.84,4.84,0,0,0-3.59-1.22h-2.07V77h1.74a5.27,5.27,0,0,0,3.84-1.26A5,5,0,0,0,181.36,72" transform="translate(0 0)"/>
        <path class="cls-3" d="M189,78.36a4.26,4.26,0,0,1-3.23-1.25,4.81,4.81,0,0,1-1.18-3.46,5.28,5.28,0,0,1,1.1-3.54,3.62,3.62,0,0,1,2.95-1.31,3.47,3.47,0,0,1,2.74,1.13,4.42,4.42,0,0,1,1,3v.89h-6.35a3.65,3.65,0,0,0,.82,2.46,2.84,2.84,0,0,0,2.19.84,7.41,7.41,0,0,0,2.95-.62v1.25a8.53,8.53,0,0,1-1.41.46,8,8,0,0,1-1.59.14m-.38-8.4a2.29,2.29,0,0,0-1.77.73,3.34,3.34,0,0,0-.78,2h4.82a3,3,0,0,0-.59-2,2.06,2.06,0,0,0-1.68-.71" transform="translate(0 0)"/>
        <path class="cls-3" d="M198.76,78.35a4,4,0,0,1-1.64-.33,3,3,0,0,1-1.25-1h-.1a14,14,0,0,1,.1,1.53v3.8h-1.4V69h1.13l.2,1.27h.07a3.17,3.17,0,0,1,1.25-1.1,3.87,3.87,0,0,1,1.64-.33,3.39,3.39,0,0,1,2.83,1.25,6.68,6.68,0,0,1,0,7,3.42,3.42,0,0,1-2.82,1.25m-.2-8.37a2.49,2.49,0,0,0-2.05.78,4.07,4.07,0,0,0-.64,2.5v.31a4.65,4.65,0,0,0,.64,2.78,2.48,2.48,0,0,0,2.08.84,2.17,2.17,0,0,0,1.87-1,4.55,4.55,0,0,0,.68-2.67,4.38,4.38,0,0,0-.68-2.65,2.22,2.22,0,0,0-1.9-.92" transform="translate(0 0)"/>
        <path class="cls-3" d="M212.73,73.57a5.09,5.09,0,0,1-1.14,3.52,4,4,0,0,1-3.14,1.26,4.1,4.1,0,0,1-2.19-.58,3.83,3.83,0,0,1-1.49-1.66,5.79,5.79,0,0,1-.52-2.54,5.1,5.1,0,0,1,1.13-3.52,4,4,0,0,1,3.13-1.25,3.9,3.9,0,0,1,3.08,1.28,5.08,5.08,0,0,1,1.14,3.49m-7,0a4.4,4.4,0,0,0,.71,2.69,2.44,2.44,0,0,0,2.07.93,2.48,2.48,0,0,0,2.09-.93,5.43,5.43,0,0,0,0-5.37,2.54,2.54,0,0,0-2.1-.91,2.44,2.44,0,0,0-2.07.9,4.32,4.32,0,0,0-.7,2.69" transform="translate(0 0)"/>
        <path class="cls-3" d="M217.74,77.2a5.52,5.52,0,0,0,.71,0A5.43,5.43,0,0,0,219,77V78.1a2.32,2.32,0,0,1-.67.18,4.73,4.73,0,0,1-.8.07c-1.78,0-2.67-.94-2.67-2.81V70.05h-1.32v-.67l1.32-.59.59-2h.81V69h2.67v1.09h-2.67v5.43a1.9,1.9,0,0,0,.39,1.28,1.42,1.42,0,0,0,1.09.44" transform="translate(0 0)"/>
      </g>
    </g>
  </g>
</svg>
