<svg xmlns="http://www.w3.org/2000/svg" xmlns:xlink="http://www.w3.org/1999/xlink"><symbol viewBox="0 0 42 48" id="agriculture" xmlns="http://www.w3.org/2000/svg"><defs><style>.acls-1{fill:#418fde}</style></defs><g id="aLayer_2" data-name="Layer 2"><g id="aIcons"><path class="acls-1" d="M5 21h1v-3a5 5 0 0 0-5-5H0v3a5 5 0 0 0 5 5zM5 30h1v-3a5 5 0 0 0-5-5H0v3a5 5 0 0 0 5 5zM6 36a5 5 0 0 0-5-5H0v3a5 5 0 0 0 5 5h1zM9 18v3h1a5 5 0 0 0 5-5v-3h-1a5 5 0 0 0-5 5zM9 27v3h1a5 5 0 0 0 5-5v-3h-1a5 5 0 0 0-5 5zM9 36v3h1a5 5 0 0 0 5-5v-3h-1a5 5 0 0 0-5 5zM6 46.5a1.5 1.5 0 0 0 3 0V41H6zM1.5 11A1.5 1.5 0 0 0 3 9.5v-4a1.5 1.5 0 0 0-3 0v4A1.5 1.5 0 0 0 1.5 11zM13.5 4A1.5 1.5 0 0 0 12 5.5v4a1.5 1.5 0 0 0 3 0v-4A1.5 1.5 0 0 0 13.5 4zM7.5 14A1.5 1.5 0 0 0 9 12.5v-11a1.5 1.5 0 0 0-3 0v11A1.5 1.5 0 0 0 7.5 14zM28.278 21.221l.965.26.777-2.898a5 5 0 0 0-3.536-6.124l-.966-.259-.776 2.898a5 5 0 0 0 3.536 6.123zM25.948 29.915l.966.259.777-2.898a5 5 0 0 0-3.536-6.124l-.966-.259-.776 2.898a5 5 0 0 0 3.535 6.124zM24.585 38.867l.776-2.898a5 5 0 0 0-3.535-6.124l-.966-.258-.777 2.897a5 5 0 0 0 3.536 6.124zM32.918 19.359l-.777 2.898.966.259a5 5 0 0 0 6.124-3.536l.776-2.898-.966-.258a5 5 0 0 0-6.123 3.535zM30.588 28.052l-.776 2.898.966.259a5 5 0 0 0 6.124-3.536l.776-2.897-.966-.26a5 5 0 0 0-6.124 3.536zM28.259 36.746l-.776 2.897.965.26a5 5 0 0 0 6.124-3.536l.777-2.898-.966-.259a5 5 0 0 0-6.124 3.536zM22.644 46.111a1.5 1.5 0 0 0 2.897.777l1.424-5.313-2.898-.776zM27.485 10.656a1.5 1.5 0 0 0 1.837-1.06l1.035-3.864a1.5 1.5 0 1 0-2.897-.776l-1.036 3.863a1.5 1.5 0 0 0 1.061 1.837zM40.888 7a1.5 1.5 0 0 0-1.837 1.061l-1.036 3.864a1.5 1.5 0 0 0 2.898.777l1.035-3.864A1.5 1.5 0 0 0 40.888 7zM32.504 15.107a1.5 1.5 0 0 0 1.837-1.06L37.188 3.42a1.5 1.5 0 1 0-2.898-.776L31.443 13.27a1.5 1.5 0 0 0 1.061 1.837z"/></g></g></symbol><symbol fill="none" stroke="currentColor" stroke-width="2" stroke-linecap="round" stroke-linejoin="round" class="bfeather bfeather-book-open" viewBox="0 0 24 24" id="book-open" xmlns="http://www.w3.org/2000/svg"><path d="M2 3h6a4 4 0 0 1 4 4v14a3 3 0 0 0-3-3H2zM22 3h-6a4 4 0 0 0-4 4v14a3 3 0 0 1 3-3h7z"/></symbol><symbol fill="none" stroke="currentColor" stroke-width="2" stroke-linecap="round" stroke-linejoin="round" class="cfeather cfeather-box" viewBox="0 0 24 24" id="box" xmlns="http://www.w3.org/2000/svg"><path d="M21 16V8a2 2 0 0 0-1-1.73l-7-4a2 2 0 0 0-2 0l-7 4A2 2 0 0 0 3 8v8a2 2 0 0 0 1 1.73l7 4a2 2 0 0 0 2 0l7-4A2 2 0 0 0 21 16z"/><path d="M3.27 6.96L12 12.01l8.73-5.05M12 22.08V12"/></symbol><symbol viewBox="0 0 47.994 45" id="construction" xmlns="http://www.w3.org/2000/svg"><defs><style>.dcls-1{fill:#418fde}</style></defs><g id="dLayer_2" data-name="Layer 2"><g id="dIcons"><path class="dcls-1" d="M22.731 17l-2.47 2.47 5.27 5.27 3.01-3.01-5.27-5.27-.54.54zM.586 39.143a2 2 0 0 0 0 2.828l2.443 2.443a2 2 0 0 0 2.828 0L24.023 26.25l-5.272-5.271zM47.371 16.46l-3.78-3.76a1.069 1.069 0 0 0-1.5 0l-1.51 1.51-2.26-2.26 1.4-1.4a1.056 1.056 0 0 0-.01-1.49l-4.09-4.09-.43-.43-1.08-1.08A11.776 11.776 0 0 0 25.801 0a11.572 11.572 0 0 0-7.42 2.64 1.057 1.057 0 0 0-.07 1.58l6.76 6.76a2.307 2.307 0 0 1 .68 1.02 3.02 3.02 0 0 1-.64 2.61l-.34.34 2.05 2.05 3.23 3.22 2.25-2.25 2.26 2.25-1.51 1.52a1.05 1.05 0 0 0 0 1.5l3.77 3.76a2.142 2.142 0 0 0 3.02 0l7.53-7.53a2.13 2.13 0 0 0 0-3.01z"/></g></g></symbol><symbol fill="none" stroke="currentColor" stroke-width="2" stroke-linecap="round" stroke-linejoin="round" class="efeather efeather-download" viewBox="0 0 24 24" id="download" xmlns="http://www.w3.org/2000/svg"><path d="M21 15v4a2 2 0 0 1-2 2H5a2 2 0 0 1-2-2v-4M7 10l5 5 5-5M12 15V3"/></symbol><symbol viewBox="0 0 100 100" id="emptyCart" xmlns="http://www.w3.org/2000/svg"><svg xmlns="http://www.w3.org/2000/svg" viewBox="0 0 100 100" transform="matrix(.69 0 0 .69 15.5 15.5)"><circle cx="41.9" cy="89" r="6.2"/><circle cx="70.5" cy="89" r="6.2"/><path d="M85.1 38.2H35.7L35 36c-1.4-4.7-5.7-7.9-10.6-7.9H10.1c-3 0-5.3 2.6-5 5.6.3 2.6 2.6 4.5 5.3 4.5h8.1c2.5 0 4.8 1.7 5.5 4.1l1.7 5.7v.2L32.9 72c1.2 3.9 4.8 6.6 8.9 6.6h31c4.2 0 7.9-2.8 8.9-6.9l5-23.7c1.8-.6 3.3-2.2 3.5-4.2.2-3-2.2-5.6-5.1-5.6zM57.5 70.8c-6.8 0-12.4-5.5-12.4-12.4 0-6.8 5.5-12.4 12.4-12.4 6.8 0 12.4 5.5 12.4 12.4s-5.5 12.4-12.4 12.4z"/><path d="M60.4 58.4l3.2-3.2c.6-.6.6-1.6 0-2.2l-.6-.7c-.6-.6-1.6-.6-2.2 0l-3.1 3.1-3.1-3.1c-.6-.6-1.6-.6-2.2 0l-.9.7c-.6.6-.6 1.6 0 2.2l3.1 3.1-3.2 3.2c-.6.6-.6 1.6 0 2.2l.6.6c.6.6 1.6.6 2.2 0l3.2-3.2 3.2 3.2c.6.6 1.6.6 2.2 0l.6-.6c.6-.6.6-1.6 0-2.2l-3-3.1z"/></svg></symbol><symbol fill="none" stroke="currentColor" stroke-width="2" stroke-linecap="round" stroke-linejoin="round" class="gfeather gfeather-home" viewBox="0 0 24 24" id="home" xmlns="http://www.w3.org/2000/svg"><path d="M3 9l9-7 9 7v11a2 2 0 0 1-2 2H5a2 2 0 0 1-2-2z"/><path d="M9 22V12h6v10"/></symbol><symbol viewBox="0 0 36 44" id="house" xmlns="http://www.w3.org/2000/svg"><defs><style>.hcls-1{fill:#418fde}</style></defs><g id="hLayer_2" data-name="Layer 2"><path class="hcls-1" d="M18.664.253a1 1 0 0 0-1.328 0L.328 15.702a1 1 0 0 0-.328.74V44h14V34a2.006 2.006 0 0 1 2-2h4a2.006 2.006 0 0 1 2 2v10h14V16.443a1 1 0 0 0-.328-.74z" id="hIcons"/></g></symbol><symbol fill="none" stroke="currentColor" stroke-width="2" stroke-linecap="round" stroke-linejoin="round" class="ifeather ifeather-info" viewBox="0 0 24 24" id="info" xmlns="http://www.w3.org/2000/svg"><circle cx="12" cy="12" r="10"/><path d="M12 16v-4M12 8h0"/></symbol><symbol viewBox="0 0 48 48" id="innovation" xmlns="http://www.w3.org/2000/svg"><defs><style>.jcls-1{fill:#418fde}</style></defs><g id="jLayer_2" data-name="Layer 2"><g id="jIcons"><path class="jcls-1" d="M27.5 40h-7a1.5 1.5 0 0 0 0 3h7a1.5 1.5 0 1 0 0-3zM24 14a10.995 10.995 0 0 0-5 20.79V37a1 1 0 0 0 1 1h8a1 1 0 0 0 1-1v-2.21A10.995 10.995 0 0 0 24 14zM24 10a2 2 0 0 0 2-2V2a2 2 0 0 0-4 0v6a2 2 0 0 0 2 2zM8 22H2a2 2 0 0 0 0 4h6a2 2 0 0 0 0-4zM46 22h-6a2 2 0 0 0 0 4h6a2 2 0 0 0 0-4zM13.946 10.732L10.155 6.08a2 2 0 0 0-3.1 2.527l3.79 4.65a2 2 0 0 0 3.1-2.526zM40.66 5.794a2 2 0 0 0-2.815.287l-3.79 4.65a2 2 0 0 0 3.1 2.528l3.79-4.65a2 2 0 0 0-.286-2.815zM27 45h-6a1 1 0 0 0-1 1 2 2 0 0 0 2 2h4a2 2 0 0 0 2-2 1 1 0 0 0-1-1z"/></g></g></symbol><symbol fill="none" stroke="currentColor" stroke-width="2" stroke-linecap="round" stroke-linejoin="round" class="kfeather kfeather-list" viewBox="0 0 24 24" id="list" xmlns="http://www.w3.org/2000/svg"><path d="M8 6h13M8 12h13M8 18h13M3 6h0M3 12h0M3 18h0"/></symbol><symbol fill="none" stroke="currentColor" stroke-width="2" stroke-linecap="round" stroke-linejoin="round" class="lfeather lfeather-mail" viewBox="0 0 24 24" id="mail" xmlns="http://www.w3.org/2000/svg"><path d="M4 4h16c1.1 0 2 .9 2 2v12c0 1.1-.9 2-2 2H4c-1.1 0-2-.9-2-2V6c0-1.1.9-2 2-2z"/><path d="M22 6l-10 7L2 6"/></symbol><symbol viewBox="0 0 48 41" id="medical" xmlns="http://www.w3.org/2000/svg"><defs><style>.mcls-1{fill:#418fde}</style></defs><g id="mLayer_2" data-name="Layer 2"><path class="mcls-1" d="M46 9H35V2a2.006 2.006 0 0 0-2-2H15a2.006 2.006 0 0 0-2 2v7H2a2.006 2.006 0 0 0-2 2v28a2.006 2.006 0 0 0 2 2h44a2.006 2.006 0 0 0 2-2V11a2.006 2.006 0 0 0-2-2zM18 5h12v4H18zm2.27 22.27a2.502 2.502 0 0 1-1.77.73H16v2.5a2.5 2.5 0 0 1-5 0V28H8.5a2.5 2.5 0 0 1 0-5H11v-2.5a2.5 2.5 0 1 1 5 0V23h2.5a2.503 2.503 0 0 1 1.77 4.27z" id="mIcons"/></g></symbol><symbol viewBox="0 0 32 41.982" id="safety" xmlns="http://www.w3.org/2000/svg"><defs><style>.ncls-1{fill:#418fde}</style></defs><g id="nLayer_2" data-name="Layer 2"><path class="ncls-1" d="M31.19 2.972l-15-2.95a.812.812 0 0 0-.38 0l-15 2.95a.997.997 0 0 0-.81.98v20.18c0 9.86 7.3 17.85 16 17.85s16-7.99 16-17.85V3.953a.997.997 0 0 0-.81-.98zm-8.51 18.3l-.7.69-5.62 5.87a.507.507 0 0 1-.72 0l-5.62-5.87-.7-.69a4.334 4.334 0 0 1-.06-6.17 4.23 4.23 0 0 1 2.89-1.13 4.274 4.274 0 0 1 2.99 1.22l.86.79.86-.79a4.274 4.274 0 0 1 2.99-1.22 4.23 4.23 0 0 1 2.89 1.13 4.334 4.334 0 0 1-.06 6.17z" id="nIcons"/></g></symbol><symbol fill="none" stroke="currentColor" stroke-width="2" stroke-linecap="round" stroke-linejoin="round" class="ofeather ofeather-star" viewBox="0 0 24 24" id="star" xmlns="http://www.w3.org/2000/svg"><path d="M12 2l3.09 6.26L22 9.27l-5 4.87 1.18 6.88L12 17.77l-6.18 3.25L7 14.14 2 9.27l6.91-1.01L12 2z"/></symbol><symbol fill="none" stroke="currentColor" stroke-width="2" stroke-linecap="round" stroke-linejoin="round" class="pfeather pfeather-truck" viewBox="0 0 24 24" id="truck" xmlns="http://www.w3.org/2000/svg"><path d="M1 3h15v13H1zM16 8h4l3 3v5h-7V8z"/><circle cx="5.5" cy="18.5" r="2.5"/><circle cx="18.5" cy="18.5" r="2.5"/></symbol><symbol fill="none" stroke="currentColor" stroke-width="2" stroke-linecap="round" stroke-linejoin="round" class="qfeather qfeather-user" viewBox="0 0 24 24" id="user" xmlns="http://www.w3.org/2000/svg"><path d="M20 21v-2a4 4 0 0 0-4-4H8a4 4 0 0 0-4 4v2"/><circle cx="12" cy="7" r="4"/></symbol><symbol viewBox="0 0 48 48" id="wash" xmlns="http://www.w3.org/2000/svg"><defs><style>.rcls-1{fill:#418fde}</style></defs><g id="rLayer_2" data-name="Layer 2"><g id="rIcons"><path class="rcls-1" d="M5.68 31.166C4.436 32.86 0 39.117 0 41.976a6 6 0 1 0 12 0c0-2.859-4.436-9.116-5.68-10.81a.392.392 0 0 0-.64 0zM46 1h-3a2 2 0 0 0-2 2v5H29V3h4.5a1.5 1.5 0 0 0 0-3h-14a1.5 1.5 0 0 0 0 3H24v5H13.853A11.866 11.866 0 0 0 2 19.853V22H1a1 1 0 0 0-1 1v3a1 1 0 0 0 1 1h10a1 1 0 0 0 1-1v-3a1 1 0 0 0-1-1h-1v-2.147A3.857 3.857 0 0 1 13.853 16H41v5a2 2 0 0 0 2 2h3a2 2 0 0 0 2-2V3a2 2 0 0 0-2-2z"/></g></g></symbol></svg>